# xmcd
#
# Track frame offsets:
#	150
#	21325
#	37369
#	53318
#	65478
#	77405
#	95636
#	110832
#	132518
#	154621
#	173998
#	191960
#	206796
#	227393
#	241784
#	260082
#	270988
#	291356
#	303514
#	321025
#
# Disc length: 4509 seconds
#
# Revision: 0
# Processed by: cddbd v1.5.2PL0 Copyright (c) Steve Scherf et al.
# Submitted via: EasyCDDAExtractor 12.0.0.1
#
DISCID=23119b14
DTITLE=Various Artist - Na dobra droge
DYEAR=2004
DGENRE=Country
TTITLE0=Cezary Makiewicz - Wszystkie drogi prowadza do Mragowa
TTITLE1=Tomasz Szwed and Full Service - Nie mow do mnie misiu
TTITLE2=Pawel Baczkowski - Zacznijmy od nowa
TTITLE3=Johnny Walker Band - Gdy Beatlesi grali mi
TTITLE4=Coach - Zycie jak rock'n'roll
TTITLE5=Pawel Baczkowski - Jestem juz za stary
TTITLE6=Savannah Country - Kochany, dla Ciebie spiewam
TTITLE7=Lonstar - Caly swiat, ona i ja
TTITLE8=Electric Roosters - Jak ja nie lubie swojej roboty
TTITLE9=Manson Band - Bar przy autostradzie
TTITLE10=Colorado Band - Nadzieja
TTITLE11=Whiskey River - Czasami lubie kochac
TTITLE12=Electric Roosters - jeszcze bedziesz...
TTITLE13=Hello - Nie poddawaj sie
TTITLE14=Country Five - Uwierz w siebie
TTITLE15=T. Band - Polski cajun
TTITLE16=Mariusz Kalaga - Ile dziewczat dzis spotkalem
TTITLE17=Party Tour - Harley i dziewczyna
TTITLE18=Tomasz Szwed and Konwoj - Poczatkujaca kelnerka Aldona
TTITLE19=Andrzej Cierniewski - Slodka Karolina
EXTD=
EXTT0=
EXTT1=
EXTT2=
EXTT3=
EXTT4=
EXTT5=
EXTT6=
EXTT7=
EXTT8=
EXTT9=
EXTT10=
EXTT11=
EXTT12=
EXTT13=
EXTT14=
EXTT15=
EXTT16=
EXTT17=
EXTT18=
EXTT19=
PLAYORDER=
